<mxfile host="app.diagrams.net" agent="Mozilla/5.0 (Windows NT 10.0; Win64; x64) AppleWebKit/537.36 (KHTML, like Gecko) Chrome/132.0.0.0 Safari/537.36" version="26.0.10">
  <diagram name="Página-1" id="cU2UZQfnezKRbgxUVfsO">
    <mxGraphModel dx="2048" dy="599" grid="1" gridSize="10" guides="1" tooltips="1" connect="1" arrows="1" fold="1" page="1" pageScale="1" pageWidth="827" pageHeight="1169" math="0" shadow="0">
      <root>
        <mxCell id="0" />
        <mxCell id="1" parent="0" />
        <mxCell id="iETXb1ONOd2IGvLU2RNQ-5" value="&lt;table border=&quot;1&quot; width=&quot;100%&quot; height=&quot;100%&quot; cellpadding=&quot;4&quot; style=&quot;width:100%;height:100%;border-collapse:collapse;&quot;&gt;&lt;tbody&gt;&lt;tr&gt;&lt;th align=&quot;center&quot;&gt;&lt;b&gt;Gestão&lt;/b&gt;&lt;/th&gt;&lt;/tr&gt;&lt;tr&gt;&lt;td&gt;- id : int;&lt;br&gt;- nome: string;&lt;br&gt;- cpf: int;&lt;br&gt;- senha: string;&lt;br&gt;- e-mail: string;&lt;br&gt;- nº telefone: string;&lt;/td&gt;&lt;/tr&gt;&lt;tr&gt;&lt;td&gt;- cadastrarTurmas();&lt;br&gt;+ cadastrarAluno();&lt;br&gt;- cadastrarProfessor();&lt;br&gt;- alterarTerceiros();&lt;br&gt;- gerarAtestados() : string;&lt;br&gt;- gerarRelatorios(): string;&lt;br&gt;- gerarCompMat(): string;&lt;br&gt;+ gerarCompFreq() : string;&lt;br&gt;- gerarHistorico(): string;&lt;br&gt;&lt;/td&gt;&lt;/tr&gt;&lt;/tbody&gt;&lt;/table&gt;" style="text;html=1;whiteSpace=wrap;strokeColor=none;fillColor=none;overflow=fill;" vertex="1" parent="1">
          <mxGeometry x="-40" y="150" width="180" height="300" as="geometry" />
        </mxCell>
        <mxCell id="iETXb1ONOd2IGvLU2RNQ-6" value="&lt;table border=&quot;1&quot; width=&quot;100%&quot; height=&quot;100%&quot; cellpadding=&quot;4&quot; style=&quot;width:100%;height:100%;border-collapse:collapse;&quot;&gt;&lt;tbody&gt;&lt;tr&gt;&lt;th align=&quot;center&quot;&gt;&lt;b&gt;Coordenação&lt;/b&gt;&lt;/th&gt;&lt;/tr&gt;&lt;tr&gt;&lt;td&gt;- id : int;&lt;br&gt;- nome: string;&lt;br&gt;- cpf: int;&lt;br&gt;- senha: int;&lt;br&gt;- e-mail: string;&lt;br&gt;- nº telefone: string;&lt;/td&gt;&lt;/tr&gt;&lt;tr&gt;&lt;td&gt;+ cadastrarTurma();&lt;br&gt;+ cadastrarAluno();&lt;br&gt;- gerarBoletim();&lt;/td&gt;&lt;/tr&gt;&lt;/tbody&gt;&lt;/table&gt;" style="text;html=1;whiteSpace=wrap;strokeColor=none;fillColor=none;overflow=fill;" vertex="1" parent="1">
          <mxGeometry x="560" y="140" width="180" height="180" as="geometry" />
        </mxCell>
        <mxCell id="iETXb1ONOd2IGvLU2RNQ-7" value="&lt;table border=&quot;1&quot; width=&quot;100%&quot; height=&quot;100%&quot; cellpadding=&quot;4&quot; style=&quot;width:100%;height:100%;border-collapse:collapse;&quot;&gt;&lt;tbody&gt;&lt;tr&gt;&lt;th align=&quot;center&quot;&gt;Professor&lt;/th&gt;&lt;/tr&gt;&lt;tr&gt;&lt;td&gt;- id : int;&lt;br&gt;- nome: string;&lt;br&gt;- cpf: int;&lt;br&gt;- senha: int;&lt;br&gt;- e-mail: string;&lt;br&gt;- nº telefone: string;&lt;span style=&quot;&quot;&gt;&lt;br&gt;- turnoTrabalho: string;&lt;br&gt;- disciplinasMinistradas: string;&lt;/span&gt;&lt;/td&gt;&lt;/tr&gt;&lt;tr&gt;&lt;td&gt;+ lançarNotas();&lt;br&gt;+ lançarNotas();&lt;br&gt;+ lancarPlanAulas();&lt;br&gt;+ gerarCompFreq();&lt;/td&gt;&lt;/tr&gt;&lt;/tbody&gt;&lt;/table&gt;" style="text;html=1;whiteSpace=wrap;strokeColor=none;fillColor=none;overflow=fill;" vertex="1" parent="1">
          <mxGeometry x="350" y="70" width="200" height="240" as="geometry" />
        </mxCell>
        <mxCell id="iETXb1ONOd2IGvLU2RNQ-9" value="&lt;table border=&quot;1&quot; width=&quot;100%&quot; height=&quot;100%&quot; cellpadding=&quot;4&quot; style=&quot;width:100%;height:100%;border-collapse:collapse;&quot;&gt;&lt;tbody&gt;&lt;tr&gt;&lt;th align=&quot;center&quot;&gt;&lt;b&gt;Login&lt;/b&gt;&lt;/th&gt;&lt;/tr&gt;&lt;tr&gt;&lt;td&gt;- id: int;&lt;br&gt;- senha: string;&lt;/td&gt;&lt;/tr&gt;&lt;tr&gt;&lt;td&gt;- efetuarLogin();&lt;/td&gt;&lt;/tr&gt;&lt;/tbody&gt;&lt;/table&gt;" style="text;html=1;whiteSpace=wrap;strokeColor=none;fillColor=none;overflow=fill;" vertex="1" parent="1">
          <mxGeometry x="80" y="20" width="180" height="180" as="geometry" />
        </mxCell>
        <mxCell id="iETXb1ONOd2IGvLU2RNQ-14" value="&lt;table border=&quot;1&quot; width=&quot;100%&quot; height=&quot;100%&quot; cellpadding=&quot;4&quot; style=&quot;width:100%;height:100%;border-collapse:collapse;&quot;&gt;&lt;tbody&gt;&lt;tr&gt;&lt;th align=&quot;center&quot;&gt;&lt;b&gt;Aluno&lt;/b&gt;&lt;/th&gt;&lt;/tr&gt;&lt;tr&gt;&lt;td&gt;&lt;span style=&quot;&quot;&gt;- id : int;&lt;/span&gt;&lt;br style=&quot;&quot;&gt;&lt;span style=&quot;&quot;&gt;- nome: string;&lt;/span&gt;&lt;br style=&quot;&quot;&gt;&lt;span style=&quot;&quot;&gt;- cpf: int;&lt;br&gt;- rg: int;&lt;br&gt;&lt;/span&gt;&lt;span style=&quot;&quot;&gt;- senha: int;&lt;/span&gt;&lt;br style=&quot;&quot;&gt;&lt;span style=&quot;&quot;&gt;- e-mail: string;&lt;/span&gt;&lt;br style=&quot;&quot;&gt;&lt;span style=&quot;&quot;&gt;- nº telefone: string;&lt;br&gt;&lt;/span&gt;&lt;span style=&quot;&quot;&gt;- nº matricula;&lt;br&gt;- nomeResponsaveis;&lt;br&gt;rgResponsaveis;&lt;br&gt;- numeroNIS;&lt;br&gt;- contatoResponsaveis;&lt;br&gt;- endereco;&lt;br&gt;- cartaoSUS;&lt;br&gt;&lt;/span&gt;&lt;/td&gt;&lt;/tr&gt;&lt;tr&gt;&lt;td&gt;&lt;br&gt;&lt;/td&gt;&lt;/tr&gt;&lt;/tbody&gt;&lt;/table&gt;" style="text;html=1;whiteSpace=wrap;strokeColor=none;fillColor=none;overflow=fill;" vertex="1" parent="1">
          <mxGeometry x="1020" y="110" width="180" height="310" as="geometry" />
        </mxCell>
        <mxCell id="iETXb1ONOd2IGvLU2RNQ-15" value="&lt;table border=&quot;1&quot; width=&quot;100%&quot; height=&quot;100%&quot; cellpadding=&quot;4&quot; style=&quot;width:100%;height:100%;border-collapse:collapse;&quot;&gt;&lt;tbody&gt;&lt;tr&gt;&lt;th align=&quot;center&quot;&gt;Lançar Notas&lt;/th&gt;&lt;/tr&gt;&lt;tr&gt;&lt;td&gt;- nº matricula;&lt;br&gt;&amp;nbsp;- nome;&lt;br&gt;- disciplina;&lt;br&gt;- notas;&lt;/td&gt;&lt;/tr&gt;&lt;tr&gt;&lt;td align=&quot;center&quot;&gt;- lancarNotas();&lt;/td&gt;&lt;/tr&gt;&lt;/tbody&gt;&lt;/table&gt;" style="text;html=1;whiteSpace=wrap;strokeColor=none;fillColor=none;overflow=fill;" vertex="1" parent="1">
          <mxGeometry x="790" y="120" width="180" height="180" as="geometry" />
        </mxCell>
        <mxCell id="iETXb1ONOd2IGvLU2RNQ-16" value="&lt;table border=&quot;1&quot; width=&quot;100%&quot; height=&quot;100%&quot; cellpadding=&quot;4&quot; style=&quot;width:100%;height:100%;border-collapse:collapse;&quot;&gt;&lt;tbody&gt;&lt;tr&gt;&lt;th align=&quot;center&quot;&gt;&lt;b&gt;Lançar Frequência&lt;/b&gt;&lt;/th&gt;&lt;/tr&gt;&lt;tr&gt;&lt;td&gt;- data completa;&lt;br&gt;- nomeAluno;&lt;br&gt;- nomeDisciplina;&lt;br&gt;- nomeProfessor;&lt;br&gt;- quantidadeFaltas;&lt;br&gt;- quantidadePresenca;&lt;/td&gt;&lt;/tr&gt;&lt;tr&gt;&lt;td align=&quot;center&quot;&gt;- lancarFrequencia();&lt;/td&gt;&lt;/tr&gt;&lt;/tbody&gt;&lt;/table&gt;" style="text;html=1;whiteSpace=wrap;strokeColor=none;fillColor=none;overflow=fill;" vertex="1" parent="1">
          <mxGeometry x="200" y="520" width="180" height="180" as="geometry" />
        </mxCell>
        <mxCell id="iETXb1ONOd2IGvLU2RNQ-17" value="&lt;table border=&quot;1&quot; width=&quot;100%&quot; height=&quot;100%&quot; cellpadding=&quot;4&quot; style=&quot;width:100%;height:100%;border-collapse:collapse;&quot;&gt;&lt;tbody&gt;&lt;tr&gt;&lt;th align=&quot;center&quot;&gt;Cadastro das Aulas&lt;/th&gt;&lt;/tr&gt;&lt;tr&gt;&lt;td&gt;- dataCompleta;&lt;br&gt;- nomeAssunto;&lt;br&gt;- numeroAula;&lt;br&gt;- disciplina;&lt;br&gt;- nomeProfessor;&lt;br&gt;- materiaisUtilizados;&lt;/td&gt;&lt;/tr&gt;&lt;tr&gt;&lt;td align=&quot;center&quot;&gt;- cadastrarAulas();&lt;/td&gt;&lt;/tr&gt;&lt;/tbody&gt;&lt;/table&gt;" style="text;html=1;whiteSpace=wrap;strokeColor=none;fillColor=none;overflow=fill;" vertex="1" parent="1">
          <mxGeometry x="790" y="310" width="180" height="180" as="geometry" />
        </mxCell>
        <mxCell id="iETXb1ONOd2IGvLU2RNQ-18" value="&lt;table border=&quot;1&quot; width=&quot;100%&quot; height=&quot;100%&quot; cellpadding=&quot;4&quot; style=&quot;width:100%;height:100%;border-collapse:collapse;&quot;&gt;&lt;tr&gt;&lt;th align=&quot;center&quot;&gt;&lt;b&gt;Title&lt;/b&gt;&lt;/th&gt;&lt;/tr&gt;&lt;tr&gt;&lt;td align=&quot;center&quot;&gt;Section 1.1&#xa;Section 1.2&#xa;Section 1.3&lt;/td&gt;&lt;/tr&gt;&lt;tr&gt;&lt;td align=&quot;center&quot;&gt;Section 2.1&#xa;Section 2.2&#xa;Section 2.3&lt;/td&gt;&lt;/tr&gt;&lt;/table&gt;" style="text;html=1;whiteSpace=wrap;strokeColor=none;fillColor=none;overflow=fill;" vertex="1" parent="1">
          <mxGeometry x="420" y="330" width="180" height="180" as="geometry" />
        </mxCell>
      </root>
    </mxGraphModel>
  </diagram>
</mxfile>
